Coordinates
version=1
nRows=22
nColumns=24
inDegrees=yes

Units are S.I. units (second, meters, Newtons, ...)
If the header above contains a line with 'inDegrees', this indicates whether rotational values are in degrees (yes) or radians (no).

endheader
time	pelvis_tilt	pelvis_list	pelvis_rotation	pelvis_tx	pelvis_ty	pelvis_tz	lumbar_extension	lumbar_bending	lumbar_rotation	arm_flex_r	arm_add_r	arm_rot_r	elbow_flex_r	pro_sup_r	wrist_flex_r	wrist_dev_r	arm_flex_l	arm_add_l	arm_rot_l	elbow_flex_l	pro_sup_l	wrist_flex_l	wrist_dev_l
      0.00000000	    -12.12971876	     -1.34562777	      1.06896761	      1.25519260	      0.86585166	      0.19640317	     -7.61628563	     -0.58650925	      1.83191316	     -0.41701518	    -21.12453848	     17.51859619	     49.53125214	     67.43957260	    -24.70851171	    -18.45171212	     13.07360412	     -9.36314133	     28.30768439	     14.00004475	     66.08257482	    -16.68499166	    -11.56059104
      0.00400000	    -12.12545284	     -1.34598903	      1.05522471	      1.25534388	      0.86582634	      0.19643090	     -7.61159893	     -0.58523719	      1.81799180	     -0.42397187	    -21.12720111	     17.52134600	     49.52729170	     67.43993011	    -24.70459972	    -18.45145645	     13.08743844	     -9.36188469	     28.30644180	     14.00550673	     66.08518332	    -16.68654439	    -11.56152288
      0.00800000	    -12.12553126	     -1.34534163	      1.05281509	      1.25552505	      0.86577803	      0.19649872	     -7.61091557	     -0.58454839	      1.81523256	     -0.42408825	    -21.12878173	     17.52183069	     49.52630607	     67.43995966	    -24.70401353	    -18.45141994	     13.09204331	     -9.36128756	     28.30640678	     14.00737165	     66.08574304	    -16.68676563	    -11.56179721
      0.01200000	    -12.11543722	     -1.34830175	      1.02993129	      1.25562998	      0.86580684	      0.19649314	     -7.60067079	     -0.58461412	      1.79204822	     -0.43551025	    -21.13501105	     17.52610208	     49.51970670	     67.44023340	    -24.70037054	    -18.45116243	     13.11496452	     -9.36072179	     28.30676053	     14.01760855	     66.08948093	    -16.68820481	    -11.56357921
      0.01600000	    -12.10968490	     -1.35146365	      1.00920912	      1.25573214	      0.86580753	      0.19651004	     -7.59487287	     -0.58517446	      1.77089743	     -0.44327146	    -21.14142179	     17.52854365	     49.51658481	     67.44078541	    -24.69638704	    -18.45125013	     13.13101133	     -9.36262384	     28.30793312	     14.02578429	     66.09361959	    -16.68965482	    -11.56531751
      0.02000000	    -12.10473356	     -1.35064073	      0.99761805	      1.25589213	      0.86574406	      0.19656114	     -7.58956262	     -0.58311478	      1.75911409	     -0.44553716	    -21.14782599	     17.53384982	     49.51326092	     67.44150657	    -24.69187920	    -18.45145231	     13.14336937	     -9.36369225	     28.31036082	     14.03530029	     66.09883591	    -16.69123174	    -11.56757804
      0.02400000	    -12.09533008	     -1.35322058	      0.98439226	      1.25598319	      0.86576946	      0.19660907	     -7.57988083	     -0.58427630	      1.74522540	     -0.44710061	    -21.15281492	     17.53823668	     49.51039778	     67.44201680	    -24.68852071	    -18.45161815	     13.15821248	     -9.35964274	     28.31320933	     14.04602047	     66.10329588	    -16.69233036	    -11.56975800
      0.02800000	    -12.07600248	     -1.35624645	      0.96861048	      1.25600279	      0.86575047	      0.19659295	     -7.56094748	     -0.58545317	      1.72904893	     -0.44472617	    -21.15990549	     17.54301071	     49.50679406	     67.44252335	    -24.68459621	    -18.45174792	     13.18060034	     -9.35467151	     28.31726245	     14.05987286	     66.10882712	    -16.69363062	    -11.57253799
      0.03200000	    -12.06875263	     -1.35709826	      0.95171251	      1.25610216	      0.86577996	      0.19658548	     -7.55339842	     -0.58416994	      1.71212419	     -0.44505337	    -21.16933365	     17.54884054	     49.50095905	     67.44293160	    -24.68020904	    -18.45171835	     13.19898270	     -9.35276096	     28.32263069	     14.07287526	     66.11537984	    -16.69513859	    -11.57558274
      0.03600000	    -12.38679655	     -1.39671719	      0.78174933	      1.25090374	      0.86706714	      0.19712981	     -7.90099764	     -0.59779497	      1.53917858	      0.80071119	    -21.26476469	     18.47512017	     48.95064137	     67.38855297	    -23.72187458	    -18.49930765	     13.76832399	     -9.54980278	     28.74776433	     14.21411514	     67.17072215	    -17.38356366	    -11.81474724
      0.04000000	    -12.38202166	     -1.40035747	      0.75379371	      1.25094550	      0.86712973	      0.19710316	     -7.89641604	     -0.59751879	      1.51108999	      0.78918873	    -21.26456280	     18.47161841	     48.95419340	     67.38816305	    -23.72144803	    -18.50081551	     13.78896532	     -9.54804971	     28.74600919	     14.22189231	     67.17193919	    -17.38446080	    -11.81508666
      0.04400000	    -12.37913338	     -1.40203077	      0.73186729	      1.25105847	      0.86716175	      0.19714812	     -7.89329088	     -0.59637698	      1.48880286	      0.78330782	    -21.26615994	     18.46648762	     48.95953166	     67.38792443	    -23.72103306	    -18.50248628	     13.80475430	     -9.54797465	     28.74475418	     14.22925972	     67.17338379	    -17.38535511	    -11.81565183
      0.04800000	    -12.37649526	     -1.40271772	      0.70855790	      1.25116151	      0.86721043	      0.19714766	     -7.89040873	     -0.59389163	      1.46557199	      0.77939822	    -21.26831111	     18.45913581	     48.96803304	     67.38776651	    -23.72044591	    -18.50483227	     13.82049732	     -9.54988572	     28.74372841	     14.23907082	     67.17570764	    -17.38654677	    -11.81673053
      0.05200000	    -12.37523189	     -1.40288694	      0.68584400	      1.25127551	      0.86721002	      0.19715958	     -7.88904687	     -0.59100303	      1.44294728	      0.77658667	    -21.27114284	     18.45108292	     48.97713098	     67.38765117	    -23.71982436	    -18.50731900	     13.83546161	     -9.55150668	     28.74347337	     14.25126743	     67.17871371	    -17.38768473	    -11.81835716
      0.05600000	    -12.37386787	     -1.40328012	      0.66293544	      1.25136640	      0.86727556	      0.19717204	     -7.88742035	     -0.58831684	      1.42008655	      0.77362510	    -21.27384812	     18.44307878	     48.98605828	     67.38754118	    -23.71920356	    -18.50976103	     13.85056377	     -9.55086664	     28.74406321	     14.26640105	     67.18230909	    -17.38874566	    -11.82058075
      0.06000000	    -12.52993327	     -1.37293319	      0.63294425	      1.24940392	      0.86753544	      0.19681807	     -8.05396456	     -0.55123557	      1.39886820	      0.90421500	    -21.36632729	     18.14690907	     49.37719109	     67.38561560	    -23.66605370	    -18.60411361	     13.97708567	     -9.63124291	     28.74733036	     14.81434842	     67.35186345	    -17.46864284	    -11.92059419
      0.06400000	    -12.52546710	     -1.37475957	      0.61389465	      1.24955537	      0.86756724	      0.19683650	     -8.04895085	     -0.55050049	      1.37956002	      0.89551564	    -21.36820908	     18.14476407	     49.37393894	     67.38496005	    -23.66568977	    -18.60406849	     13.99568023	     -9.63286045	     28.74664796	     14.81908629	     67.35333710	    -17.46995358	    -11.92122514
      0.06800000	    -12.52106699	     -1.37563722	      0.59396412	      1.24968942	      0.86759960	      0.19685633	     -8.04411299	     -0.54870636	      1.35950749	      0.88646571	    -21.37016538	     18.14244429	     49.37056757	     67.38426422	    -23.66535723	    -18.60402469	     14.01457753	     -9.63418503	     28.74666540	     14.82560341	     67.35534144	    -17.47111624	    -11.92225443
      0.07200000	    -12.51701541	     -1.37632962	      0.57370959	      1.24982244	      0.86763885	      0.19688264	     -8.03960490	     -0.54670526	      1.33912211	      0.87752123	    -21.37177548	     18.14000676	     49.36725212	     67.38354775	    -23.66503759	    -18.60399629	     14.03347301	     -9.63370753	     28.74740553	     14.83423284	     67.35785443	    -17.47215945	    -11.92368339
      0.07600000	    -12.51367728	     -1.37669520	      0.55330747	      1.24995043	      0.86768752	      0.19691032	     -8.03579672	     -0.54435879	      1.31863487	      0.86853795	    -21.37273736	     18.13756700	     49.36392265	     67.38282357	    -23.66472166	    -18.60398297	     14.05212456	     -9.63081593	     28.74879746	     14.84503701	     67.36083991	    -17.47315852	    -11.92551717
      0.08000000	    -12.51067542	     -1.37669647	      0.53259624	      1.25008500	      0.86773335	      0.19691395	     -8.03229921	     -0.54151360	      1.29804910	      0.85971440	    -21.37477922	     18.13455627	     49.36026400	     67.38200634	    -23.66447569	    -18.60397509	     14.07110480	     -9.62837542	     28.75068519	     14.85762708	     67.36436566	    -17.47411987	    -11.92779591
      0.08400000	    -12.50786373	     -1.37652156	      0.51140232	      1.25022035	      0.86778161	      0.19691180	     -8.02898521	     -0.53840307	      1.27704870	      0.85092542	    -21.37808988	     18.13090703	     49.35619966	     67.38108429	    -23.66429672	    -18.60396806	     14.09054871	     -9.62590973	     28.75325165	     14.87251333	     67.36855661	    -17.47501796	    -11.93057854
